<svg width="87" height="80" viewBox="0 0 87 80" fill="none" xmlns="http://www.w3.org/2000/svg">
<path d="M55.3975 5.45753C55.8049 5.69374 56.1202 6.06114 56.2918 6.4997C56.4635 6.93827 56.4813 7.42209 56.3425 7.87211L48.8448 32.2343H62.6786C63.0852 32.2342 63.4829 32.3531 63.8226 32.5763C64.1624 32.7996 64.4293 33.1175 64.5905 33.4907C64.7516 33.8639 64.8 34.2762 64.7295 34.6766C64.6591 35.077 64.4729 35.448 64.194 35.7438L30.8895 71.1298C30.5673 71.4724 30.1385 71.6959 29.673 71.7636C29.2075 71.8314 28.7328 71.7395 28.3262 71.5029C27.9196 71.2663 27.6052 70.8989 27.4342 70.4607C27.2631 70.0226 27.2455 69.5393 27.3842 69.0899L34.8819 44.7235H21.0481C20.6415 44.7237 20.2438 44.6048 19.9041 44.3815C19.5643 44.1582 19.2974 43.8404 19.1362 43.4671C18.9751 43.0939 18.9267 42.6816 18.9972 42.2812C19.0677 41.8808 19.2538 41.5098 19.5327 41.214L52.8372 5.82805C53.159 5.48584 53.5872 5.26257 54.052 5.19455C54.5169 5.12652 54.991 5.21774 55.3975 5.45337V5.45753Z" fill="url(#paint0_linear_132_2838)"/>
<rect x="5.17249" y="6.49634" width="4.31039" height="19.8278" rx="2.15519" transform="rotate(-45 5.17249 6.49634)" fill="#7EBCC6"/>
<rect x="64.6558" y="65.9797" width="4.31039" height="19.8278" rx="2.15519" transform="rotate(-45 64.6558 65.9797)" fill="#41748D"/>
<rect x="78.6761" y="3.44849" width="4.31039" height="19.8278" rx="2.15519" transform="rotate(45 78.6761 3.44849)" fill="#7EBCC6"/>
<rect x="19.1927" y="62.9319" width="4.31039" height="19.8278" rx="2.15519" transform="rotate(45 19.1927 62.9319)" fill="#41748D"/>
<circle cx="2.58623" cy="49.1382" r="2.58623" fill="#EB5C5F"/>
<circle cx="9.48272" cy="56.0352" r="2.58623" fill="#EB5C5F"/>
<circle cx="27.5866" cy="2.58623" r="2.58623" fill="#EB5C5F"/>
<circle cx="83.6216" cy="40.5176" r="2.58623" fill="#EB5C5F"/>
<defs>
<linearGradient id="paint0_linear_132_2838" x1="41.8634" y1="5.17261" x2="41.8634" y2="71.7853" gradientUnits="userSpaceOnUse">
<stop stop-color="#7EBCC6"/>
<stop offset="1" stop-color="#41748D"/>
</linearGradient>
</defs>
</svg>
