<svg width="87" height="80" viewBox="0 0 20 20" fill="none" xmlns="http://www.w3.org/2000/svg">
<circle cx="10" cy="10" r="10" fill="#41748D"/>
<path d="M8.92472 15V7.36364H10.7244V15H8.92472ZM9.82955 6.27983C9.54451 6.27983 9.29924 6.18537 9.09375 5.99645C8.88826 5.80421 8.78551 5.57386 8.78551 5.3054C8.78551 5.03362 8.88826 4.80327 9.09375 4.61435C9.29924 4.42211 9.54451 4.32599 9.82955 4.32599C10.1179 4.32599 10.3632 4.42211 10.5653 4.61435C10.7708 4.80327 10.8736 5.03362 10.8736 5.3054C10.8736 5.57386 10.7708 5.80421 10.5653 5.99645C10.3632 6.18537 10.1179 6.27983 9.82955 6.27983Z" fill="white"/>
</svg>
