<svg width="75" height="80" viewBox="0 0 75 80" fill="none" xmlns="http://www.w3.org/2000/svg">
<path fill-rule="evenodd" clip-rule="evenodd" d="M18.4421 9.41724C15.1915 9.41724 12.5563 12.0524 12.5563 15.303V18.8345H24.3279V15.303C24.3279 12.0524 21.6927 9.41724 18.4421 9.41724ZM18.4421 11.7715C16.9251 11.7715 15.6954 13.0013 15.6954 14.5182V18.8345H21.1888V14.5182C21.1888 13.0013 19.959 11.7715 18.4421 11.7715Z" fill="#7EBCC6"/>
<path d="M30.9535 79.9778C24.7202 79.9778 22.5462 78.186 19.4363 74.6511C18.3937 73.4649 17.598 72.0812 17.0959 70.5815C16.5938 69.0818 16.3956 67.4964 16.513 65.9186C16.5672 65.5056 16.7814 65.1307 17.1089 64.8751C17.4365 64.6195 17.8512 64.5038 18.2631 64.553C18.6751 64.6023 19.0511 64.8125 19.3098 65.1382C19.5685 65.4639 19.689 65.8788 19.6452 66.2931C19.5791 67.4352 19.7387 68.5792 20.1147 69.6592C20.4906 70.7392 21.0756 71.7338 21.8358 72.5859C24.3323 75.3944 25.505 76.778 30.974 76.778C32.4369 76.8682 33.9023 76.648 35.2749 76.1319C36.6475 75.6158 37.8965 74.8152 38.9406 73.7823C43.639 68.9143 43.3257 59.0285 43.1169 53.1364C43.1169 52.0879 43.0535 51.1967 43.0535 50.4421V13.211C43.0535 4.82119 48.0334 0 56.7308 0C69.6978 0 71.098 9.76034 71.098 13.9656V40.9944C71.098 41.201 71.0574 41.4055 70.9787 41.5963C70.9 41.7871 70.7847 41.9605 70.6393 42.1065C70.4938 42.2526 70.3212 42.3684 70.1312 42.4475C69.9412 42.5265 69.7375 42.5672 69.5319 42.5672C69.3262 42.5672 69.1225 42.5265 68.9325 42.4475C68.7425 42.3684 68.5699 42.2526 68.4245 42.1065C68.279 41.9605 68.1637 41.7871 68.085 41.5963C68.0063 41.4055 67.9658 41.201 67.9658 40.9944V14.0311C67.9658 9.0938 66.0137 3.21101 56.7308 3.21101C49.7356 3.21101 46.1857 6.59802 46.1857 13.2765V50.5133C46.1857 51.236 46.1857 52.1178 46.2379 53.1027C46.4486 59.4985 46.7805 70.2137 41.1537 76.0328C39.8196 77.3662 38.2237 78.4062 36.4677 79.0867C34.7116 79.7672 32.8337 80.0732 30.9535 79.9853V79.9778Z" fill="url(#paint0_linear_132_2854)"/>
<path d="M71.2135 52.1609H68.0813C67.7248 52.1594 67.3796 52.036 67.1023 51.811C66.8251 51.5861 66.6325 51.2729 66.5562 50.9233L64.4681 41.3745C64.4068 41.1416 64.4 40.8976 64.4482 40.6616C64.4964 40.4256 64.5984 40.2041 64.7461 40.0142C64.8938 39.8244 65.0832 39.6714 65.2995 39.5673C65.5159 39.4633 65.7533 39.4108 65.9931 39.4142H73.3016C73.5381 39.4113 73.7721 39.4627 73.9858 39.5644C74.1995 39.6661 74.3872 39.8155 74.5347 40.0012C74.6821 40.1868 74.7854 40.4039 74.8367 40.6357C74.888 40.8675 74.8858 41.1081 74.8304 41.3389L72.7442 50.8877C72.6748 51.2449 72.4844 51.5669 72.2054 51.799C71.9263 52.0311 71.5758 52.159 71.2135 52.1609ZM69.3342 49.0154H69.983L71.3813 42.6196H67.9321L69.3342 49.0154Z" fill="#41748D"/>
<path d="M69.5747 59.7831C69.16 59.7806 68.7631 59.6141 68.47 59.3197C68.1768 59.0253 68.011 58.6267 68.0085 58.2103V49.9385C68.0085 49.5213 68.1735 49.1213 68.4672 48.8264C68.761 48.5314 69.1593 48.3657 69.5747 48.3657C69.99 48.3657 70.3884 48.5314 70.6821 48.8264C70.9758 49.1213 71.1408 49.5213 71.1408 49.9385V58.2103C71.1408 58.6274 70.9758 59.0275 70.6821 59.3224C70.3884 59.6174 69.99 59.7831 69.5747 59.7831Z" fill="#41748D"/>
<path fill-rule="evenodd" clip-rule="evenodd" d="M0 21.6953C0 18.3816 2.68629 15.6953 6 15.6953H30.8842C34.1979 15.6953 36.8842 18.3816 36.8842 21.6953V60.7053C36.8842 64.019 34.1979 66.7053 30.8842 66.7053H6C2.68629 66.7053 0 64.019 0 60.7053V21.6953ZM3.13908 21.8345C3.13908 20.1776 4.48222 18.8345 6.13908 18.8345H12.5563V15.6954H24.3279V18.8345H30.7451C32.4019 18.8345 33.7451 20.1776 33.7451 21.8345V60.5663C33.7451 62.2232 32.4019 63.5663 30.7451 63.5663H6.13908C4.48222 63.5663 3.13908 62.2232 3.13908 60.5663V21.8345Z" fill="url(#paint1_linear_132_2854)"/>
<circle cx="18.4421" cy="15.3029" r="1.17715" fill="#7EBCC6"/>
<path fill-rule="evenodd" clip-rule="evenodd" d="M4.70862 41.0826C8.27053 40.3781 12.8112 40.8376 17.6573 44.7369C22.3735 48.5318 27.6681 49.0687 32.1756 48.4454V58.9969C32.1756 60.6537 30.8324 61.9969 29.1756 61.9969H7.70862C6.05176 61.9969 4.70862 60.6537 4.70862 58.9969V41.0826Z" fill="#7EBCC6"/>
<rect x="21.1888" y="21.9736" width="10.9868" height="2.35431" rx="1.17715" fill="#EB5C5F"/>
<rect x="21.1888" y="32.9602" width="10.9868" height="2.35431" rx="1.17715" fill="#EB5C5F"/>
<rect x="17.265" y="27.467" width="14.9106" height="2.35431" rx="1.17715" fill="#EB5C5F"/>
<rect x="14.9106" y="66.7053" width="7.06293" height="4.70862" fill="#41748D"/>
<defs>
<linearGradient id="paint0_linear_132_2854" x1="43.7891" y1="0" x2="43.7891" y2="80" gradientUnits="userSpaceOnUse">
<stop stop-color="#7EBCC6"/>
<stop offset="1" stop-color="#41748D"/>
</linearGradient>
<linearGradient id="paint1_linear_132_2854" x1="18.4421" y1="15.6953" x2="18.4421" y2="66.7053" gradientUnits="userSpaceOnUse">
<stop stop-color="#7EBCC6"/>
<stop offset="1" stop-color="#41748D"/>
</linearGradient>
</defs>
</svg>
