<svg width="26" height="20" viewBox="0 0 26 20" fill="none" xmlns="http://www.w3.org/2000/svg">
<path d="M5.89257 7.97595C5.60435 7.97595 5.32777 8.02137 5.05248 8.06279C5.14166 7.75284 5.23342 7.43754 5.38076 7.15431C5.5281 6.74282 5.75816 6.38611 5.98692 6.02672C6.1782 5.63794 6.51553 5.37475 6.76368 5.04208C7.02346 4.71877 7.37759 4.50367 7.65806 4.23514C7.93335 3.95457 8.29394 3.81429 8.58086 3.61657C8.88071 3.43888 9.14179 3.24248 9.42096 3.14896L10.1176 2.85237L10.7302 2.58918L10.1034 0L9.33178 0.192384C9.08492 0.256512 8.78378 0.331329 8.44128 0.420841C8.09103 0.487641 7.71751 0.670674 7.30134 0.837675C6.89034 1.02739 6.41472 1.15564 5.9727 1.46025C5.5281 1.7515 5.015 1.99466 4.56264 2.38477C4.1245 2.78691 3.59589 3.1356 3.20557 3.64729C2.77906 4.12558 2.35772 4.62792 2.03073 5.19973C1.65204 5.74482 1.39485 6.34335 1.12343 6.9352C0.877867 7.52705 0.680122 8.13226 0.518566 8.72011C0.212255 9.89846 0.0752558 11.018 0.0222654 11.976C-0.0216779 12.9352 0.00417106 13.7328 0.0584539 14.31C0.0778407 14.5825 0.114029 14.847 0.139878 15.0301L0.172189 15.2545L0.205793 15.2465C0.43567 16.3565 0.964853 17.3765 1.73213 18.1886C2.4994 19.0007 3.47342 19.5717 4.54149 19.8354C5.60957 20.0992 6.72807 20.045 7.7676 19.6791C8.80712 19.3133 9.7252 18.6506 10.4156 17.7679C11.1061 16.8852 11.5406 15.8185 11.6691 14.6911C11.7975 13.5638 11.6145 12.4219 11.1414 11.3975C10.6682 10.3731 9.92416 9.50817 8.99529 8.90267C8.06643 8.29717 6.99071 7.97588 5.89257 7.97595ZM20.1095 7.97595C19.8213 7.97595 19.5447 8.02137 19.2694 8.06279C19.3586 7.75284 19.4504 7.43754 19.5977 7.15431C19.745 6.74282 19.9751 6.38611 20.2039 6.02672C20.3951 5.63794 20.7325 5.37475 20.9806 5.04208C21.2404 4.71877 21.5945 4.50367 21.875 4.23514C22.1503 3.95457 22.5109 3.81429 22.7978 3.61657C23.0977 3.43888 23.3587 3.24248 23.6379 3.14896L24.3345 2.85237L24.9471 2.58918L24.3203 0L23.5487 0.192384C23.3019 0.256512 23.0007 0.331329 22.6582 0.420841C22.308 0.487641 21.9345 0.670674 21.5183 0.837675C21.1086 1.02872 20.6317 1.15564 20.1896 1.46159C19.745 1.75284 19.2319 1.99599 18.7796 2.38611C18.3414 2.78824 17.8128 3.13694 17.4225 3.64729C16.996 4.12558 16.5747 4.62792 16.2477 5.19973C15.869 5.74482 15.6118 6.34335 15.3404 6.9352C15.0948 7.52705 14.8971 8.13226 14.7355 8.72011C14.4292 9.89846 14.2922 11.018 14.2392 11.976C14.1953 12.9352 14.2211 13.7328 14.2754 14.31C14.2948 14.5825 14.331 14.847 14.3568 15.0301L14.3891 15.2545L14.4227 15.2465C14.6526 16.3565 15.1818 17.3765 15.9491 18.1886C16.7163 19.0007 17.6904 19.5717 18.7584 19.8354C19.8265 20.0992 20.945 20.045 21.9845 19.6791C23.0241 19.3133 23.9421 18.6506 24.6326 17.7679C25.323 16.8852 25.7576 15.8185 25.886 14.6911C26.0144 13.5638 25.8315 12.4219 25.3583 11.3975C24.8851 10.3731 24.1411 9.50817 23.2122 8.90267C22.2834 8.29717 21.2076 7.97588 20.1095 7.97595Z" fill="#FFC4C4"/>
</svg>
