<svg xmlns="http://www.w3.org/2000/svg" width="157" height="66" viewBox="0 0 157 66">
    <g fill="none" fill-rule="evenodd">
        <path fill="#EF7300" d="M124.848.52c1.148 1.373 1.465 3.085 1.66 4.843.174.865.548 1.647 1 2.39.294.996.528 2.07 1.552 2.682.297.314.519.84.98.927l.862.264c.465.05.818.03 1.266.03l.048.054c1.075-.142 2.162.005 3.082-.533.418-.146.962-.01 1.319-.314.64.037 1.49.337 1.86-.349.28-.24.626-.403.976-.371.608-.202 1.13-.593 1.79-.664 1.03-.473 2.09-.892 3.104-1.43.13-.03.235-.125.395-.103.645-.192 1.17-.649 1.714-1.09.884-.71 2.154-.48 3.051-1.164.325-.208.723-.053 1.104-.132.701-.063 1.143-.745 1.92-.64 1.05-.009 2.333-.525 3.18.346.34.316.606.713.737 1.14.16 1.018-.72 1.67-.919 2.57-.499.99-1.832.995-2.053 2.092-.446.532-1.142.702-1.546 1.253-1.062.995-2.39 1.348-3.533 2.143a5.386 5.386 0 0 1-1.784 1.244c-.39.317-.605.737-.948 1.093-.959.602-2.118.779-2.895 1.772h-.05c-.47.74-1.31.784-1.763 1.49a3.518 3.518 0 0 0-1.371 1.298c-.391.577-1.139.55-1.374 1.242-.215.398-.94.474-.783 1.04.115.381-.279.63-.478.895.06.206.124.366.03.565l.1 1.03c-.013.05-.07.074-.05.134.297.244.698.249.902.638.101.87 1.129.68 1.42 1.46.398.574.46 1.291.967 1.825.137.498.308 1.032.792 1.327.393.566.763 1.155 1.105 1.751.254.285.583.394.87.604.915.948 1.295 2.118 2.231 3.053.367.498.987.903 1.138 1.54.328.567.736 1.095.887 1.722.355.219.58.591.658.98.785.464.72 1.487 1.317 2.12.467.474.81.993.948 1.587.75.741 1.046 1.714.974 2.766 0 .884.84 1.433.767 2.358.195.45.195 1.048 0 1.489-.402.303-.272.818-.453 1.214-.337.686-.943 1.508-1.764 1.594-.664.025-1.302.125-1.861.394-.814-.011-1.508-.325-2.134-.767-.507-.293-.806-.938-1.368-1.09-.305-.347-.443-.792-.837-1.082-.274-.485-.79-.736-1.113-1.224-.803-.904-1.25-1.954-2.284-2.702-.748-.729-1.112-1.667-1.865-2.416-.68-.617-1.43-1.36-1.773-2.194-.764-.907-1.81-1.361-2.437-2.366-.211-.226-.467-.355-.74-.446-.444-.806-1.286-1.29-1.921-1.938-.184-.084-.38-.146-.58-.214-.501-.78-1.328-.768-1.919-1.325-.242-.076-.445-.235-.659-.396-.497-.083-1.12-.083-1.344-.608-.181-.08-.56.074-.658-.245-.19.032-.34.133-.5.245-.774-.429-1.02.747-1.736.717-.308.071-.6.175-.922.211-.465.245-.883.609-1.386.766-.34.265-.434.618-.587.98-.574 1.084-1.282 2.217-2.368 2.97-.563.875-1.65 1.442-1.891 2.463-.292.62-.789 1.162-1.264 1.705-.23.322-.606.39-.923.584-.62 1.444-1.966 2.49-2.943 3.735l-.443.396c.02.263 0 .579-.239.772-1.025 1.245-2.205 2.283-2.974 3.632-.32.235-.861.433-.708.984-.125.708-.79 1.166-1.314 1.663-.132.61-.607 1-.952 1.517-.592.744-1.132 1.671-2.024 2.123-.25.541-1.072.572-1.031 1.241-.375.724-.872 1.468-1.627 1.859-.57.54-1.163 1.009-1.864 1.223-.39-.181-.551.33-.872.369-.761-.415-1.365.639-2.001-.104a4.797 4.797 0 0 1-.975-.398c-.833-1.026-.874-2.581-.363-3.763.022-.62.445-1.137.547-1.755.117-.41.484-.701.71-1.06.16-.346.233-.723.475-1.034.188-.495.342-.993.66-1.44.263-.489.209-1.12.554-1.588.714-.839 1.079-1.823 1.467-2.81.323-.443.784-.82 1.034-1.323.478-1.367 1.861-2.36 2.628-3.607.613-.612.95-1.334 1.263-2.075.548-.99 1.669-1.614 1.974-2.72.737-.981 1.593-1.953 2.106-3.05.19-.45.58-.809.66-1.304.013-1.128.947-1.873 1.154-2.92.429-1.164.618-2.436 1.55-3.395.058-.727.735-1.22.632-1.987-.145-.315-.517-.424-.762-.684-.476-.486-1.07-.886-1.767-.823a3.05 3.05 0 0 0-.675-.138c-.968-.395-2.003-.595-2.978-.948-.522-.348-1.15-.634-1.5-1.225l-.655-.527c-1.128.153-1.881-.79-3.002-.711-1.251-.314-2.502-.628-3.683-1.096-.66-.734-1.757-.544-2.262-1.477-.459-.275-1.058-.421-1.264-1.008-.132-.194-.116-.486-.076-.715.238-.48.668-.79 1.047-1.175.404-.329.887-.235 1.398-.286 1.42-.17 3.007-.257 4.364-.744.649-.091 1.416-.176 2.03-.03.773.119 1.681-.088 2.44-.08.548-.021 1.074-.066 1.607.03a17.41 17.41 0 0 0 2.107-.236 3.558 3.558 0 0 0 2.527-.347c.777-.294 1.645-.328 2.421-.64.371-.575.942-.907 1.579-.98.285-.473.752-.568 1.154-.877.284-.467.797-.797 1.132-1.194.059-.403.074-.892.292-1.266.957-.702.498-1.987 1.105-2.842.231-.73.407-1.48.868-2.123.185-.28-.027-.706.074-1.063.25-.55.839-.962 1.053-1.528.051-.325-.096-.695.03-1.01.224-1.07.584-2.131 1.547-2.838.521-.374.995-1.014 1.74-.693.395.083.83.04 1.153.296"/>
        <path fill="#D93F05" d="M125.194 6.406c.054-.052.155-.134.138-.238-.043-.034-.084-.101-.159-.082-.19-.063-.136.155-.19.244a.22.22 0 0 0 .211.076zm29.17 1.799l-.3-.468c-.082.044-.333.413-.3.546.4.359.509.002.6-.078zm-10.182.57c.142.076.127-.095.237-.161-.083-.08-.1-.219-.13-.286-.068.054-.193 0-.238.074 0 .138-.099.146.131.373zm7.106 3.64c.186.052.257-.185.43-.185a.436.436 0 0 0-.082-.43c-.118-.078-.217.053-.32.082-.129.153-.224.327-.216.534.02.078.154.078.188 0zm-.877.609c.578-.053.353-.563.3-.454-.055-.148-.25-.096-.38-.11-.134.066-.16.237-.184.377a.712.712 0 0 0 .264.187zm-1.174.296c-.091-.11-.234-.084-.356-.133l-.022.114c.049.14.346.211.378.02zm-6.017 2.477c-.041-.06-.217-.46-.297-.45-.15.058-.27.584-.319.71.229.162.917.28.616-.26zm-41.546 2.772c.1-.039.17-.173.1-.266a.454.454 0 0 0-.18-.195c-.152-.012-.37-.08-.486.063-.129.304.274.523.566.398zm37.843 1.472c.436-.09.386-.557.456-.88l-.054-.053c-.256-.119-.51.073-.698.268.027.243-.056.375-.03.585.074.108.235.01.326.08zm-2.805.644c.06-.156.326.24.404.144.114-.029.18.155.287.076.162-.237-.16-.725-.266-.792-.138.075-.352.44-.425.572zm-2.042 1.1c-.16-.082-.2-.364-.432-.32v.079c-.174.113-.106.32-.157.48.237.198.421-.146.589-.239zm-37.587.845c.332.025.617-.195.914-.34a.281.281 0 0 0-.244.075c-.215.06-.477.127-.67-.05-.105-.516-.647-.118-.802-.237l.108.105c.225-.088.417.04.563.182.083.078.05.225.131.265zm13.76 5.303a.841.841 0 0 0 .323-.244c.01-.069 0-.15-.073-.16-.154.127-.33-.02-.514.022-.061.063-.177.063-.135.195a.518.518 0 0 0 .4.187zm24.408 2.37c.053-.098.488-.595.589-.573.1-.14-.589-.044-.589-.222l-.36.222c-.013.154.138.464.36.574zM110.29 33.94c.097-.132.258-.28.268-.474-.04-.2.176-.377.021-.558-.106.027-.262-.07-.324.077.039.306-.368.425-.236.767a.3.3 0 0 0 .27.188zm.936.19c.134-.12.405-.08.426-.294.022-.283-.16-.586-.405-.747v.11c.187.145.083.36.135.553a1.108 1.108 0 0 0-.187.351l.03.027zm15.425 1.061c-.034-.072.065-.077.104-.106-.01.04-.059.102-.104.106zm-16.662.105c.12-.109.29-.222.484-.211.181-.015.163-.226.133-.35-.139-.058-.303-.004-.43.058.114.28-.348.23-.187.503zm18.243 1.332c.103.127.17-.043.294-.028-.026-.109.055-.211.028-.294-.139.051-.106-.115-.19-.159-.073-.085-.178-.067-.269-.104a.304.304 0 0 0-.105.186c.068.16.146.294.242.4zm-19.825 1.436c-.034-.068-.1-.054-.162-.054v.08c.04.096.162.045.162-.026zm.458.512c.125-.184.302-.52.215-.665-.082.108-.15.402-.35.28.045.13.008.328.135.385zm-.835.23c.204-.063.097-.304.164-.448-.013-.05-.067-.107-.136-.084-.162.046-.252.245-.295.4a.211.211 0 0 0 .267.131zm24.387.433c.09-.053.285-.04.268-.187-.052-.117-.13-.03-.246-.061-.111.008-.089-.214-.216-.102-.005.147.127.23.194.35zm-15.124 1.058c.138-.15.38-.127.435-.35.366.068.226-.154.253-.23.113-.262.053-.185-.018-.376-.42.536-.718.093-.802.877.04.049.09.049.132.08zm16.405-.209c.037-.077.068-.218-.023-.27-.05-.036-.176-.058-.215.036.02.099.136.188.238.234zm.216.052c-.011-.047-.072-.025-.106-.025-.042-.005-.086 0-.079.053.037.083.181.07.185-.028zm11.762 1.747l-.108-.453c.014.1-.153.137-.136.234a.77.77 0 0 0 .244.219zm-.275.452c.205-.181-.131-.2-.187-.344-.09-.146-.007-.443-.182-.477.02.19-.023.377-.043.595.084.097.265.259.412.226zm-9.928-.423c.103-.048.118-.193.134-.316-.105-.145-.145-.542-.434-.4.016.194-.254.257-.073.447.193.026.193.287.373.27zm-20.954.197c.217-.14.377-.428.647-.428.075-.064.136-.136.104-.239-.28.062-.58.067-.804.29-.028.108-.058.307.053.377zm-1.043.235a.434.434 0 0 0 .24-.396c-.07-.018-.06-.19-.188-.137-.23.12-.437.377-.37.64.131.02.2-.181.318-.107zm-7.945.212c-.043-.079-.103-.207-.21-.134v.085c-.12.204.27.212.21.049zm40.774 2.975c.057-.357-.065-.631-.356-.842.248.344-.311.52-.122.842 0 .347.346.067.478 0zm-31.189-1.912l.104-.051c-.014-.064-.118-.147-.164-.08l.06.131zm-2.362.403c.149-.259.51-.298.62-.535-.054-.02-.076-.07-.135-.051-.253-.066-.08-.272-.165-.424-.16-.216-.343.032-.435.156.13.26 0 .585 0 .825.055-.026.07.037.115.029zm26.579.82c.054-.106.08-.26.032-.373-.1-.042-.188-.187-.303-.13.016.223-.062.494.27.502zm-.404.426c.01-.06.074-.172-.022-.183-.088.08-.303-.029-.296.157.044.144.283.233.318.026zm1.64.985v-.424c-.036-.122-.12-.324-.298-.29l-.191.256c.013-.014-.032.527 0 .535.02.035.325-.23.304-.179 0 .116.09.102.185.102zm2.361 2.58c-.335-.21.18-.335.054-.588l-.216-.152-.102.103c-.103.231.102.479.264.636zm7.834 1.861c.11-.072.11-.21.102-.339-.074-.076-.085-.244-.24-.215a.246.246 0 0 0-.183.315c.066.117.14.286.32.24zm-42.816 2.022l.082-.185c-.134 0-.245-.207-.373-.05.046.144.211.136.291.235zm41.556.854c.22.003.31-.208.456-.293.07-.192.309-.403.1-.612-.168-.037-.139.217-.316.188-.016.226-.246.06-.356.263-.016.149-.055.377.116.454zm-43.434.294c.15-.056.284-.133.402-.248.007-.046.103-.098.028-.154-.057-.116-.134-.301-.028-.426.05-.085.202-.132.11-.235-.216.315-.557.324-.916.73.142.029.337.208.404.333zm-2.284 1.81c.019-.203.264-.15.332-.27-.359-.271.243-.549-.115-.827-.341-.034-.236.365-.372.534a.513.513 0 0 0 .155.562zm-6.808.341c.097-.186.305-.399.184-.668-.16-.17.032-.42-.184-.58-.112-.068-.243 0-.32.11-.172.214.077.397.105.607-.177.132-.218.257-.157.479.081.11.268.145.372.052zm5.097 2.392c.172-.07.236-.253.236-.425-.034-.143-.102-.282-.287-.26-.217.086-.149.25-.165.45.06.089.08.227.216.235zm-.136.268c.07-.01.109-.114.052-.156h-.081c-.02.027-.065.055-.05.103.03.02.043.065.08.053zm-7.346.875c.082-.096.157-.206.157-.347-.051-.041-.037-.185-.157-.132-.103.09-.247.132-.215.295.027.102.087.196.215.184zm4.45 3.592h.026v-.046h-.025v.046zm-2.013.72c-.067-.149.253-.139.082-.265-.32-.077-.775.734-.855.027-.166-.104-.333-.027-.486-.083-.134.044-.156.254-.319.247-.463.192-.485-.51-.808-.529.091.08.063.242.024.338a.185.185 0 0 1-.184.079c-.086-.165-.315-.229-.19-.451.135-.051.072-.22.166-.267-.062-.108-.263-.04-.298-.21-.024-.4.184-.766-.104-1.09.006-.185-.054-.391.104-.506.275.028.02-.297.216-.374-.032-.27-.18-.53-.083-.828.165-.149.304-.378.567-.267.247-.094-.037-.244-.06-.367.387-.235.05-.683.194-1.065.148-.208.17-.525.478-.58.083 0 .179.082.246.051.334-.191.104-.52.403-.716-.143-.203-.069-.408-.086-.615.108-.107.196-.23.352-.215.078.163.277.075.374.215.103-.128.259.03.296-.134.197-.08.352-.124.487-.294.066-.327-.448-.312-.301-.636.038-.15.113-.266.27-.32.201-.038.238.267.403.187.235 0-.096-.187-.03-.317a.884.884 0 0 1-.51-.561c.122-.181.083-.43.241-.585-.12-.15-.02-.269.06-.403.312-.203.684-.13.91-.446.064 0 .118.022.16.069.048.21-.146.387 0 .567.011.052-.016.118.022.158.108-.035.152-.183.274-.158a1.061 1.061 0 0 1-.084-.853c-.007-.04-.074-.16-.134-.08a.308.308 0 0 1-.266.08c-.128-.04-.143-.178-.136-.293.282-.128.377-.618.753-.424l.13.103c.054-.094.027-.21.035-.316-.208-.059-.017-.378-.298-.295-.15-.123-.053-.355-.084-.533.186-.125.177-.335.401-.369.335-.238.328-.65.328-.984.103-.197.305-.397.536-.429a.298.298 0 0 0 .208.053c.327-.166-.17-.29.033-.503.171-.167.37-.53.67-.43.103.175.305.253.184.479-.08.234-.273 0-.352.187.062.12.205.214.334.16a.52.52 0 0 0 .208-.425c-.142-.265-.203-.572-.27-.88.128-.2.44-.358.433-.636.265-.172.573-.301.7-.58.118-.194.392.065.399-.244-.14-.077-.05-.268-.192-.343.009-.392.164-.735.432-.99.196.007.39.083.485.269.009.036-.024.089.021.107.177.012.089-.19.196-.264-.06-.43.052-.917.319-1.276.157-.275.596-.098.62-.483-.094-.087-.039-.209.023-.286a.327.327 0 0 1 .267-.085c-.155.306.257.6-.137.823l-.266-.133c-.045.066-.015.164-.022.243.172.252.341-.14.591-.05.156-.105.28-.024.421-.135.032-.101.179-.183.085-.294a.337.337 0 0 1-.272.078c-.14-.161-.048-.314-.154-.475.03-.122.11-.172.204-.24.222.041.339-.26.467-.376-.091-.068-.262.026-.298-.104-.015-.111.016-.202.106-.268-.113-.134.1-.076.132-.16.11-.09.224-.274.401-.236.075.08.181.139.138.262-.07.2-.436.15-.345.402.109-.097.29-.016.37-.183-.007-.1-.007-.245.107-.245h.028c.005-.252-.142-.603.032-.852.248-.16.478-.412.672-.635.13-.239.394 0 .474-.293v-.05c-.118-.046-.266.077-.401 0-.2-.32.298-.477.166-.834.155-.085.349-.53.564-.213.491-.308.366-.88.804-1.214l.424-.404c.044-.123-.101-.123-.155-.183-.135.046-.327.13-.461.022-.103-.155-.174-.358-.103-.56.112-.097.289-.107.295-.29-.09-.3.158-.519.323-.746.11.048.145-.118.236-.134.172.02.33.165.383.318-.107.303-.383.341-.538.589-.017.105.005.203.102.262.225-.13.174-.412.404-.523l.166-.753c-.107-.079-.157 0-.267 0-.14-.168-.457-.24-.405-.505.064-.128.059-.303.238-.337.049-.011.103 0 .135.05-.086.103-.078.192.032.287l.046.059c.093-.187.034-.422.162-.59.158-.061.265-.246.462-.209.215-.176.444-.39.455-.664.297-.285-.09-.55-.187-.8.143-.28-.01-.679.264-.908.007-.2.07-.385.159-.55.128-.07.314-.235.433-.06.175.352-.091.722-.188 1.066-.067.123.104.21.156.32.14-.02.052-.185.164-.245a.775.775 0 0 0 .268-.266c.033-.19-.043-.27-.053-.446-.288-.115-.013-.42-.215-.586.092-.371-.251-.621-.186-1.015-.155-.142-.155-.37-.113-.558.09-.43.742-.107.673-.637.06-.242-.239-.212-.32-.398-.11-.148-.27-.28-.24-.482.043-.049.208-.066.133-.154.02-.148-.125-.237-.194-.35-.357-.138-.631.233-.99.025-.09-.099-.28-.006-.32-.184-.141-.248.29-.423-.053-.586-.177-.087-.426.18-.566-.053-.15-.11-.26.069-.372.135-.216-.105-.417.075-.618 0-.448-.258-1.112-.055-1.423-.612-.248-.02-.452-.171-.695-.184-.221-.26.188-.483.104-.748-.23-.31-.495.157-.722-.082-.103-.087-.113-.225-.216-.316-.3.058-.64.229-.937.05-.109-.174-.232-.342-.24-.553-.261-.515-.87.244-1.133-.349-.352-.116-.537.32-.909.233-.276-.105-.453-.375-.805-.233-.356.098-.573-.288-.97-.186-.32-.094-.17-.768-.666-.478-.296.194-.723.228-1.075.134-.201-.206-.307-.754-.723-.585-.424.286-1.072.354-1.558.186-.172-.333-.76-.186-.745-.645.007-.215-.193-.276-.379-.206-.088.112-.234.112-.376.106-.11-.24-.418-.32-.646-.43-.224.126-.433-.085-.535-.238 0-.257-.181-.438-.405-.532a.496.496 0 0 1 .115-.502c.29-.309.355.224.638.155.04.385.648.355.456.801.178.161.317.502.596.315l.05-.049c-.468-.105-.244-.69-.618-.853-.478.033-.394-.584-.832-.636-.057-.065-.098-.183-.213-.132-.178.083-.207.4-.431.29-.14-.113-.074-.335-.05-.483.09-.197.335-.154.508-.236.186-.073-.011-.23.05-.318.167-.094.228-.25.403-.317.252.066.507.268.729 0 .194-.008.327-.153.507-.195.626-.197 1.305-.51 1.96-.153.477-.106 1.165-.492 1.555 0 .212-.02.354.112.408.287.03.061 0 .177.1.194.524.066.536-.592 1.023-.612.379-.03.76-.215 1.041.151.727.117 1.028-.797 1.723-.766.53-.102.881.549 1.394.165.26-.134.594-.255.884-.165.219.015.404.165.539.32a.42.42 0 0 0 .154.295c.646.234.995-.46 1.642-.215.47-.121.388.81.859.296.037-.185 0-.437.237-.48.37-.06.769-.126 1.102.052.974-.053 1.579-.977 2.495-1.17.724.054 1.387-.118 1.83-.692.17-.487.022-1.154.637-1.414.39-.242 1.061.073 1.311-.371-.013-.25-.504-.25-.343-.558.143-.206.387-.225.613-.133a.547.547 0 0 0 .38.211c.132-.236-.135-.44-.08-.713.172-.387.482-.884.966-.908.127-.107.208-.304.135-.478-.139-.19-.293-.398-.216-.643.11-.476.791-.75.534-1.347-.12-.791.29-1.481.777-2.074.095-.588.118-1.188.347-1.712.442-.479.332-1.195.728-1.7.072-.702.152-1.467.347-2.157.35-.448.843-.783.909-1.35.453-.394.935-.838 1.477-1.05.5-.103.848.376 1.34.272.216.068.471.172.567.4.009.19.275.242.269.457.096.43-.053.831-.084 1.25.12.082.287.132.324.287.304.487-.478.487-.27.93.37.324.275.788.216 1.225-.075.04-.06.12-.13.167.112.05.236.088.314.207 0-.223.167-.29.33-.4.14-.023.23.038.265.16.01.2.01.402-.132.534a.285.285 0 0 1-.35 0c-.063-.032-.036-.109-.113-.106.15.561-.785.571-.503 1.088.26-.071.373.096.503.266.01.06-.01.143.032.187.072-.121.169-.336.351-.237.132.05.08.22.08.295-.104.084-.235.186-.379.103-.091.356-.553.273-.618.587.332.02.527-.29.784-.485.418.053.49-.55.935-.263.225.178-.037.848.427.694.462.083.526.605.596.98-.19.21-.177.485-.058.719.136.244.45.152.563.399.309-.097.03-.007.18.133-.018.258.044.54-.083.775l.03.29c.296-.036.724-.103.937.191.114-.064.145.124.217.182.008.182.098.348.023.536-.095.235-.511.21-.403.476.634.016.336-1.07 1.103-.825.282.221.636.72 1.046.503.129-.178.32-.356.535-.397.365.135.804.232 1.156 0 .43-.075.727.232 1.152.109.376-.28.948-.48 1.363-.246.66.046 1.095-.48 1.704-.554.277.2.51-.113.7.2.656-.304.448-.71.927-.626.256-.192.63.415.536-.155.135 0 .286-.13.402 0-.044.066-.044.19 0 .266.248-.096.361-.333.591-.482.18-.049.359-.2.567-.11.022.197.276.042.288.242.262-.092.16-.426.297-.61.112-.129.186-.302.374-.372.137-.022.314.03.3.183v.086c-.15.108-.252.306-.407.42.176.051.294-.183.458-.237.433-.24.403-1.049 1.023-.849.065.116.161.257.323.236.272-.12.183-.667.64-.534.135.061.042.342.262.319.117-.041.254-.01.333-.13-.034-.305 0-.633.317-.749.223-.105.424-.007.67-.073.25-.385.644-.487 1.047-.428-.056-.333.392-.318.43-.616.143-.067.294.01.403.083.216-.172.099-.562.424-.584.306.204.381-.284.649-.08.02.139-.179.182-.184.315.14.039.312-.037.424-.154.097-.42.809-.67 1.27-.73.54-.193.985-.285 1.484-.517.308-.035.478.296.8.18.23-.204.545-.234.88-.213.36.009.438.616.863.4.114-.052.238.11.322.184l-.114.165c.114.103.293.094.35.265-.036.118-.014.304-.184.32a1.7 1.7 0 0 0-.595.317c.138.19.42.096.617.083.083-.054.17-.527.329-.484.588.429-.673.9.152 1.226.213.159.064.429 0 .607.032.23-.398.221-.208.482.105.118-.219.414-.277.563a1.143 1.143 0 0 1-.34.3c.167.056.174.236.051.345-.025.041-.075.015-.112.02-.067-.053-.081-.121-.075-.203.02-.04.426-.183.426-.23-.111-.068-.599.116-.674.23.05.093.32.249.298.315-.018.068-.192.348-.402.395-.12.065-.247-.122-.32.057-.005.814-.577.543-.987 1-.396.324-.865-.314-1.24.129-.193.377-.531.46-.882.587-.233.166.023.523-.218.695-.38.442-1.095-.24-1.341.367.095.055.27 0 .27.163-.024.238-.131.497-.346.614-.248.095-.525.216-.668.42-.197.151-.516.026-.62.295-.258.27-1.12-.144-.883.565-.168.191-.466.272-.544.551a.563.563 0 0 1-.565.135c-.072-.03-.13-.124-.207-.186-.101.037-.208.025-.266.136-.016.215.13.39.071.58-.334.26-.757.456-1.205.299-.275-.017-.267-.464-.556-.379-.054.095.004.147-.054.247.116.089.235.256.157.42-.13.093-.247.211-.404.243-.102-.097-.143-.26-.053-.374-.081-.027-.148-.063-.237-.056-.062.18-.432.266-.273.512.123.073 0 .193 0 .285-.247.513-.913.14-1.266.484-.087.305-.422.367-.636.561-.339.147-.693-.207-.97.105-.105-.035-.23-.092-.344-.035-.284.247.239.663-.246.778-.095.03-.217.016-.287.105l.018.216c.163-.075.287.08.455.028.038.037.033.101.033.156-.153.082-.04.266-.19.347-.373-.12-.649.361-.933-.03-.096.052-.103.141-.054.213l.265.187c-.043.176 0 .465-.265.455-.192.04-.331.541-.54.21-.125-.142.262-.268-.026-.268-.146.106-.146.434-.371.326-.136-.136-.094-.343-.137-.51a.506.506 0 0 0-.059.452c.14.177.198.413.133.641-.073.129-.149.274-.29.346-.209.172-.585-.256-.67.157-.202.175-.335-.213-.591-.084-.334-.027.059-.405-.297-.419-.127-.116-.089-.318-.163-.451.258-.103.343.28.566.185.11.03.325.08.485.022.155-.089.282-.305.452-.37v-.053c-.367-.06-.477-.162-.872-.36-.158-.434-.953-.141-.782-.716-.251-.172-.58-.022-.854 0 .119.225.402.627.33.947-.062.144-.454.144-.236.37.047.108-.075.16-.134.212h-.164c.009.175.023.446-.209.533-.146.009-.32-.038-.401.13.037.333.342.031.505.164.185.052.306.2.403.369.083.24-.26.38-.106.584.106-.074.227.018.324.053.09.162.057.307.018.479.397.266.838.55.838 1.063a2.016 2.016 0 0 1-.267.452l-.24.297c.155.12.47-.15.559.162.064.186-.857.999-.63 1.146.247.065.529.1.67.346.127.125.058.363.27.43.17-.06.372-.118.566-.054.14.142-.059.237.104.37.074.164-.17.432.136.432.206.063.644-.156.697.187.101.36.282.835.723.926.216.148-.229.716.237.4.09.074.264.058.27.214 0 .112.058.175.032.284.564.057.335.912.96.751.151.103.208.246.193.428a.687.687 0 0 1-.164.32c.2.185.672.212.64.61.055-.101.15-.067.22-.111.146.078.155.245.108.38-.058.018-.092.056-.161.05l-.167-.214c-.2.215-.468.481-.314.828a.77.77 0 0 0 .535.365c.242-.084.506-.283.782-.13.258.275.74.347.65.77.15-.286-.019.676-.054.604l.114.08c.103-.097.004-.267.071-.37.121-.119.354.122.511.053.285.357.628.25.334 1.035-.117.12.565-.208.788-.134.2.219.496.475.35.83-.095.126-.271.25-.16.427.234.197.852-.859 1.055-.562.122.366.518-.087.72.215.293.151-.027.544.293.687.021.167-.544.877-.61.374-.281-.127-.418-.437-.434-.692-.079-.022-.19.194-.254.22.14.462.179.73.292 1.212.098-.063.324-.435.468-.28.092.385.085.78.085 1.192.083.185.245-.008.351.057.214.128.214.385.372.553.018.111-.05.247.053.318.075-.075.229-.055.317-.017.12.205.194.406.402.527a.615.615 0 0 1-.187.421c-.185.043-.327-.094-.426-.206-.05.026-.042.156-.05.206.237.125.486.389.828.111.143.069.27.155.297.319.112.397-.774.473-.248.83.058-.133-.013-.327.165-.38.28.073.515.314.594.584-.012.232.209.432.178.697.118.074.249.088.325.213.042.146-.042.257-.187.267-.085-.017-.185.016-.214.1-.064.17.133.243.214.321.11.021.251.059.268.19-.103.128-.236.313-.375.422.643-.046.04 1.084.756.581.164.01.194.177.24.298-.09.304-.223.592-.052.902.155.018.356.044.345.241-.04.261-.06.485.11.691.253.169.698.282.698.66.195.031.36.247.458.402.023.325.056-.5.588-.023-.013.213.033.66-.134.77-.14-.023-.244.285-.346.181-.058.194-.105.054-.058.271.228.269.484.544.351.93-.04.288-.39.415-.323.715.094.282-.2.497-.4.665-.211-.02-.301.235-.506.235-.19.251.137.867-.38.964-.499.36-1.02-.039-1.556.238-.181.111-.314-.068-.459-.135l-.135-.236c-.178.175-.425.111-.638.047-.207-.125-.023-.527-.379-.475-.015.056-.07.094-.103.13-.181.06-.226-.237-.403-.182-.398-.263-.362-.726-.35-1.117-.02-.165-.151-.134-.27-.165-.284-.197-.521-.426-.64-.735a.498.498 0 0 1 .08-.348c.143-.088.276.027.404.104-.083.31 0 .62.235.827.076-.133-.235-.25-.051-.4.127-.037.135-.131.156-.245-.42-.022-.144-.723-.67-.497-.065-.049-.135-.203-.208-.138.08.051.058.194.02.265-.058.09-.165.038-.265.054a.195.195 0 0 1-.082-.18c.065-.066.09-.139.166-.189h.102c-.017-.044.06-.209-.077-.22-.152-.079-.441.187-.4-.13.209-.07.02-.243.073-.345-.198-.213-.484-.43-.37-.744l-.165-.137c-.098.144-.114.415-.375.268-.07-.297-.572-.587-.214-.898.12-.1.214-.217.05-.325-.16-.176-.303-.01-.504-.026-.335-.081-.158-.65-.535-.503-.167.055-.263-.12-.353-.183-.013-.262-.02-.456-.316-.477-.122-.056-.332-.056-.323.126.158.14.502-.087.452.267.084.061.174.088.166.216.036.109-.13.14-.133.236-.13.058-.27.01-.379-.053-.078-.202-.39-.3-.272-.616-.287-.216-.28-.558-.536-.791.1-.304-.117-.574-.373-.749-.064-.041-.161-.024-.247-.024-.08-.188.07-.413-.184-.479-.204.118-.422 0-.639 0-.144-.209-.473-.316-.434-.613-.355-.099-.567-.392-.775-.693-.148-.28.108-.796-.378-.873-.144 0-.294.153-.43.024-.14-.284-.481-.2-.586-.452.077-.326.114-.56.135-.902-.2-.105-.281-.383-.52-.4-.22.017-.388.284-.632.184-.167-.125-.437-.226-.325-.504.046-.102-.072-.146-.13-.159a.798.798 0 0 1 .074-.452c-.067-.094-.157-.248-.292-.245-.112-.11.125-.327-.112-.345-.031.39-.416.105-.558.329-.254.065-.37-.232-.518-.329-.042-.046-.013-.126-.021-.184.058-.149.196.082.218-.102.098-.173.394.064.41-.197.058 0 .077.02.115-.048-.177-.21-.32.037-.504-.05-.014.047-.07.092-.103.13-.18-.063-.277-.29-.485-.269-.227-.255-.28.366-.537.112-.237-.18-.252-.466-.43-.666-.243.134-.497.086-.795.014-.13-.094-.113-.236-.135-.383-.084-.203.241-.277-.087-.454a2.247 2.247 0 0 1-.595.049c-.208-.094-.134-.315-.208-.48.044-.076.074-.205.02-.29a.412.412 0 0 0-.287-.079c-.084.104-.015.25-.164.316-.179.063-.282-.086-.402-.183-.027-.193.066-.532-.214-.582-.086 0-.152-.099-.086-.165-.228.076-.236-.302-.478-.13-.193-.04-.102.173-.159.263-.1.059-.211-.057-.242-.157.127-.224-.09-.402-.298-.478-.11-.137.01-.267-.107-.398-.079-.154-.168-.044-.269-.133l-.055.054c.138.062.138.156.252.277a.74.74 0 0 1-.09.28c-.475.072-.75-.347-1.179-.163-.187-.102-.528.357-.458-.102-.01-.136-.167-.16-.267-.11.02.104.037.177.032.318-.272.015-.436.651-.675.192-.08-.074.038-.135.03-.215-.276-.014-.413.46-.756.215-.349.043-.066.429-.4.531-.126.198-.397.163-.59.13-.021-.046-.074-.021-.11-.026l-.084.082c.144.012.114.2.194.288-.06.126-.1.275-.215.344-.133-.139-.417.078-.4-.182.043-.102.207.006.216-.133-.441-.041-.895.429-1.323.103-.073-.144-.226-.058-.35-.103-.334.093-.382.475-.426.716.19-.012.129-.22.219-.315.141-.04.141-.268.32-.218.293.113-.014.313.157.484a.808.808 0 0 1-.157.428c-.246.103-.463.323-.751.234-.196-.035-.127-.45-.352-.179.069.2.39.198.272.447.108-.006.213-.107.32-.03.198.064-.038.191 0 .266a1.356 1.356 0 0 1-.425.265l-.135-.186c-.067.12-.195.216-.298.318.214.083.187.38.112.534-.022.116-.158.213-.269.134-.045-.047-.11-.018-.163-.02-.19.18.02.353-.053.55a.385.385 0 0 1-.217.295c-.232.024-.567-.344-.703.054-.251.095-.555-.223-.688.188-.029.07.035.114.078.158.143-.044.279-.262.426-.103.105.316-.26.257-.35.475-.134-.143-.4-.07-.505-.24-.031-.104.18-.176.028-.26-.094.066-.243.092-.328.05-.059-.163-.238-.08-.34-.025-.139.182-.353.42-.57.55-.006.059.012.11.056.138.215-.089.368-.557.646-.268.119.153.372-.088.508.114.014.118-.01.248-.136.285-.065-.044-.164-.018-.236-.018-.058.196-.232.153-.38.233-.143.053-.21-.087-.322-.103-.078.076.078.2-.05.264.09.127.185.026.289.137-.036.183 0 .447-.239.5-.09.03-.165-.035-.188-.102-.005-.1.064-.19 0-.268h-.029c-.042.223-.418.542-.053.716.091.2-.028.384-.104.559-.148.07-.24.07-.4.105.044.07.012.159.02.24-.139.138-.469.029-.454.317-.202.058-.32.538-.534.323-.063-.353.208-.572.183-.904.115-.119.409.022.38-.22-.172-.12-.365.01-.537.034-.146.23.107.697-.324.717-.189.08-.26-.133-.402-.159-.481.184-.085.853-.59.984-.279.145-.487-.258-.722-.03-.13.114-.323-.13-.372.114.185.229-.128.428-.085.633.155-.04.426.03.536-.183-.089-.124-.058-.24-.03-.378l.218-.156c.112.055.096.219.241.266.323.036.312-.372.647-.295.037-.016.05.04.08.051.037.333-.318.44-.19.797-.077.129-.157.307-.324.348-.082-.041-.198-.018-.29-.049-.26.247-.037.599-.298.849-.143.19-.382.212-.59.16-.096-.084-.225-.088-.268.052-.082.385-.089.925-.538 1.144-.236.03-.378-.129-.535-.293-.129.179-.139.49-.432.51-.105.048-.012.172-.082.233-.148.051-.293.322-.457.108l-.081-.076c-.014.256-.465.378-.186.669l-.02.018c.046.048.081.111.155.087.11-.048.014-.173.083-.242.2-.126.306-.392.566-.326.144.099.368.206.236.432-.155.22-.573.183-.454.529a.787.787 0 0 1-.245.316.797.797 0 0 1-.341-.099c-.135.066-.081.204-.113.315a.303.303 0 0 1 .133.35c-.15.125 0 .546-.32.418-.035-.07-.117-.172-.215-.182 0 .121-.072.338.111.427.054.237.373.4.208.69-.183.108-.332.31-.586.265-.03.708-.827 1.056-.99 1.678-.225.36-1 .007-.837.666-.202.595-1.118.138-1.146.878-.128.376-.606.126-.807.428.077.045.19.103.102.206-.117.125-.236.259-.401.296-.064-.055-.053-.154-.053-.236.078-.205.323-.049.376-.247-.082-.02-.271.042-.35-.05-.241.28-.037.785-.482.932-.13-.021-.286-.047-.347-.187l-.051-.396c-.129-.07-.168.102-.247.153.009.162.104.325.03.482-.324.343-.76.584-1.206.481-.225.131-.336.354-.381.584.224.262-.112.668.197.903.063.217.056.474-.066.67-.093.322-.437.186-.637.267.208.117.17.366.134.555a.436.436 0 0 1-.566.129.641.641 0 0 1-.19-.129c-.073.129-.318.273-.184.479.143.107.222.325.103.48-.107.105-.23-.093-.32.027 0 .255.045.582-.266.661-.226.103-.54-.079-.779.055-.381.054-.362.534-.644.72.008.045-.016.102.028.136.158-.189.508-.078.403-.43.098-.15.247-.394.452-.372.116.078.132.23.085.348-.2-.007-.178.213-.215.34l.165.06c-.047.162-.106.351-.274.451-.173.012-.139-.245-.298-.182-.078.045-.204.182-.288.071l-.11-.206c-.128.234-.376.215-.56.072-.055-.032-.113.063-.194.029-.06-.037-.09-.151-.186-.101-.089.154-.127.353-.321.448.255.163.18-.353.455-.13.052.143.143.33.031.478-.183.178-.388 0-.568-.058z"/>
        <path fill="#D93F05" d="M135.959 23.047c-.202-.134-.402.068-.605 0-.286.11-.286.42-.354.655.092.073.266.055.316-.067.179.105.295-.084.414-.194.13-.018.209-.127.27-.216a.275.275 0 0 0-.103-.094M125.915 31.057c-.406-.16-.8.077-1.205 0-.57.128-.57.5-.71.783.185.088.534.064.628-.082.358.127.589-.102.835-.23.256-.02.417-.15.537-.26a.518.518 0 0 0-.21-.107"/>
        <path fill="#C02111" d="M129.958 25.048c-.203-.136-.4.065-.607 0-.283.107-.283.415-.351.655.09.071.265.054.312-.067.184.101.299-.085.419-.194.128-.02.208-.127.269-.22-.03-.034-.06-.07-.108-.09M126.958 19.045c-.204-.129-.402.065-.607 0-.282.11-.282.418-.351.656.093.072.266.053.313-.07.18.106.297-.083.42-.19.124-.02.207-.13.267-.219-.032-.035-.06-.073-.105-.089M128.96 23.047c-.204-.132-.4.065-.603 0-.285.107-.285.414-.357.654.093.072.267.053.313-.07.182.105.298-.083.419-.192.129-.02.21-.126.268-.22a.271.271 0 0 0-.106-.088"/>
        <path fill="#C02111" d="M120.274 5.743c.08-.477.28-.929.235-1.409.111-.243.436-.385.481-.644.262-.51-.393-.628-.4-1.06.073-.146.171-.292.268-.402l-.03-.025c.03-.019.043-.064.08-.054l-.025-.108c.208-.277.462-.697.32-1.035-.39-.066-.662.4-.85.69-.102.361-.288.762-.663.933a.502.502 0 0 0-.057.509c-.187.393-.22.864 0 1.247.34.388-.23.743 0 1.2.05.281.483.445.641.158zm30.853.56c.231.13.376-.104.53-.24.163-.02.265-.151.343-.261a.32.32 0 0 0-.138-.114c.037-.022.047-.068.084-.05v-.053c-.261-.163-.509.081-.762 0-.36.132-.36.512-.455.797.12.093.34.071.398-.08zm-30.004.215c.248-.06.184-.378.16-.564l-.267-.022c-.133.126-.227.31-.189.472.044.12.183.12.296.114zm24.564 3.166c.02-.201.273-.187.425-.238.315-.185.457-.682.875-.378.045.006.058-.038.05-.073v-.08c.515-.075.841-.585 1.195-.932.283-.281.442-.718.904-.668a.936.936 0 0 1 .291.9c-.163.256-.328.628-.664.7-.103.234-.383.058-.482.315-.305.052-.558.245-.897.234-.486.076-1.026.04-1.41.351-.092-.03-.358.096-.287-.13zM135.38 14.7c-.177-.016-.288-.173-.45-.187-.124-.36.14-.849-.132-1.171.117-.336-.531-.075-.325-.48.093-.48.558.49.907-.266l.634-.376c.201.064.575.163.613.484-.156.373-.732.576-.586 1.013.044.133.185.147.286.182.326.04.227-.337.46-.45a.78.78 0 0 1 .366-.242c.171.066.025.204 0 .294-.666.271-.345 1.026-.766 1.412-.338-.07-.799.179-1.007-.213zm-6.113 2.2c.045-.218.024-.481-.084-.668-.124-.026-.192-.3-.34-.161-.172.251-.628.496-.374.878.13.438.62.277.798-.05zm6.82 3.24c.174-.263.562-.447.454-.815.1-.051.177-.253.313-.144.134-.188.397-.114.479-.336-.009-.146.025-.275-.023-.43-.062-.285-.387-.16-.61-.197-.137-.126-.28.175-.374-.066-.065-.124 0-.273.057-.385-.079-.19.163-.328.266-.478.2.15-.162.258 0 .431.126.047.274.021.367-.075.05-.079.118-.179.084-.265-.137-.09-.24-.27-.43-.212.04-.169.23-.3.374-.407.842.289.481-.654 1.065-.863.456-.465 1.334.147 1.724-.435.077-.256-.224-.446-.262-.689.328-.247.893-.07 1.078-.528-.043-.454.43-.83.774-1.103.279-.157.334.2.553.24.04.057.06.17-.018.222-.284.023-.263-.284-.563-.245-.055.223-.321.281-.5.381.029.14.029.285.102.403a.482.482 0 0 0 .368-.183c.125.04.28-.091.398.019.419.088.455-.499.795-.571.242.117.427-.176.694-.15.258.073.376.35.582.482.167.058.34-.01.48-.074.271-.078.138.247.235.36.194.113.354.066.558.143a.87.87 0 0 0 .48-.209c.11-.22.227-.435.105-.653.05-.145-.017-.385.157-.453l-.021-.025c.19-.373.775-.392.843-.841.09-.027.17-.16.266-.093.064.122-.104.161-.155.245-.039.118-.058.297.02.4.103.162.283.147.459.147.375-.112.75-.23 1.082-.458.187-.248.098-.545.08-.835.018-.11.142-.177.269-.144.168.04.219.208.344.315.391-.21.43.406.817.186.23-.122.635-.196.592-.526-.058-.11-.191-.17-.295-.212-.237.043-.332.322-.561.33-.024-.059.052-.077.03-.14.147-.311.564-.3.872-.292l.137.05c.24-.058.524-.143.633-.383.285-.066.004-.434.13-.647.325-.288.45-.698.353-1.078-.235-.323-.254-.824-.8-.862-.102.042-.173.17-.316.144-.167.006-.19.153-.241.259-.067.094-.193.158-.29.12-.142-.257.113-.501.264-.716 0-.223.04-.522-.245-.668-.184-.063-.266-.08-.654-.027-.297.141-.689.066-1.008.192-.67.653-1.608.718-2.496.885-.233.07-.396.227-.396.456-.248.66-.977.143-1.434.503a3.82 3.82 0 0 0-.98.958c-.074.273-.41.289-.59.508-.147-.2-.42-.136-.66-.148-.245.12-.414.361-.583.556-.3.062-.339.445-.635.43-.305.429-.538-.193-.847-.122-.355.184-.751.253-1.063.525-.101-.025-.205-.03-.294-.095-.675.026-1.298.458-1.956.22-.527.01-1.043-.287-1.523-.076-.397-.039-.772.142-1.111.314-.237.04-.48.218-.715.12-.745.072-1.504.252-2.287.118-.53-.212-1.048-.05-1.48.24-.176.12-.507-.152-.64.142-.136.123-.035.445-.318.41-.052-.063-.117-.127-.103-.218.058-.192.229-.433.05-.62-.138-.373-.58-.143-.822-.143-.263-.156 0-.412-.156-.602-.072-.207-.308-.247-.507-.285-.21.12-.354.303-.29.55.149.25.463.432.766.5.223.167.12.492.115.72.193.153-.063.384.202.505.024.207.224.223.297.405l.164.028c.042.028.053.064.048.122.106.092.236.13.398.117.22-.091.441-.18.53-.411.083-.009.09-.081.083-.14.081-.287.45-.261.713-.315.12.1.23.21.266.334a.49.49 0 0 1-.295.265c-.878.142-1.327.88-1.907 1.466-.436.059-.234-.4-.48-.55-.154-.05-.32.058-.45.163-.112-.067-.301.048-.37-.12-.048-.34.076-.626.104-.931-.035-.21.01-.539-.263-.671a.56.56 0 0 0-.501.312c-.156.365-.722.292-.796.664-.185.142-.266.411-.53.411-.201-.167-.575-.13-.645-.43-.38.059-.215-.379-.527-.431-.164-.042-.386-.042-.5.091-.166.212-.047.41 0 .628-.154.14-.399.081-.532.264-.176.234-.389.401-.562.6.037.24-.226.362-.21.6.056.145.235.233.396.241.425-.304.854-.601 1.381-.676.32.11.624.254.905.454.563.232.676.812 1.058 1.197.095.2.439.268.4.482.243.276-.503.343-.32.715.144.25.393.036.613.101.236-.14.611-.062.82.022.198-.028.308.155.51.119.21-.013.324-.242.416-.38.155-.272.184-.558-.022-.816.073-.421.347-.766.581-1.124.042-.183.022-.384.134-.529.384-.539.997-.854 1.676-.793.11.149.227.307.34.452.102.186.372.155.557.121.272-.271.587-.516.614-.908.196-.255.475-.437.843-.36.742.141.155.784.297 1.147.176.252.37.595.734.625.145-.043.31-.04.431-.143.167-.185.138-.442.028-.648.08-.137.276-.026.4-.093.057.067.109.161.048.24-.12.26.289.351.421.525.17.407-.5.381-.528.747-.107.292.131.476.373.646-.044.058-.025.14-.027.212-.087.112-.21.13-.346.122-.31.199.168.419-.133.624-.045.177-.039.405.133.5.241.142.26-.125.425-.188.02-.352.432-.312.694-.413.097.109.164.22.208.342.395.03.066.293.16.5-.094.109-.226.144-.316.266-.029.163-.11.374 0 .522.138.082.272.172.447.171zm-19.877.994c-.159-.621.344-1.09.615-1.602.163-.07.3-.295.499-.21.163.183.144.37.133.59-.013.267-.351.198-.344.474.02.22.087.524-.075.694-.111.087-.17.22-.324.235-.17-.057-.423.03-.504-.181zm-19.362 1.332c.203.052.315-.175.425-.291-.09-.23.076-.63-.194-.748-.309-.127-.529.097-.768.233-.069.085.026.165.032.247.175.155.35.393.505.559zm17.961.56c-.087-.277.115-.466.291-.583.353-.194.787-.255 1.032-.646.008-.2.16-.397.031-.583-.081-.105-.185-.265-.347-.238-.164-.126-.358 0-.533 0-.085.03-.16.174-.26.104-.18-.182-.116-.535-.055-.748.054-.215.354-.272.37-.479.276-.061.499-.274.64-.506.295-.763-.588-1.426-.06-2.179.126.012.183-.12.264-.188 1.075-.088.887 1.18 1.173 1.782v.053c.31.273.568.66.98.698.392.279.48.788.504 1.27.005.442-.305.8-.665 1.042-.22.06-.398.217-.666.187-.262-.366-.523-.215-.9-.196-.611.33-.887.942-1.486 1.34-.135.059-.309.07-.313-.13zm-7.22.421c-.005-.407-.043-.85.349-1.067.408.297.022.769.022 1.148-.096.14-.324.08-.372-.08zm.502 2.456l.06-.46c.275-.119.256-.435.53-.554.223-.31.253-.937.797-.881.207 0 .272.192.448.292.31.19.819.231.878.692-.018.467-.53.51-.854.643-.466.09-1.046.09-1.4.536-.155-.09-.383-.062-.459-.268zm21.176 1.483c.114-.136.039-.355-.138-.42-.188 0-.188.185-.317.287.062.141.304.321.455.133zm-1.3 1.28c.354-.122.494-.457.683-.749.047-.151.172-.382-.05-.496-.08-.292.294-.487.48-.649-.044-.14.088-.3.03-.45-.085-.22-.298-.392-.532-.317-.207.208-.418.473-.294.745-.167.305-.527.463-.607.804.136.335-.015.62 0 .984.146-.04.152.159.29.128zm-6.45.186c.142-.155.39-.142.454-.369.006-.5-.503-.643-.719-1.041-.088.042-.16.126-.129.242-.178.228.007.55-.054.8.154.087.22.368.449.368zm5.412.456c.162-.13.279-.313.265-.536-.01-.223-.259-.296-.42-.37-.186.074.015.179.02.264.097.233-.152.32-.182.505.016.17.198.129.317.137zm-.267 1.724c.037-.183-.089-.531.213-.504l.08-.098c.287.051.737-.269.852.184.096.208-.05.378-.106.55-.242.358-.546.113-.849.087-.036-.087-.123-.143-.19-.219zm-12.465 1.926c-.151-.375.284-.74.13-1.064.462.354.894-.386 1.275.132.08.156.184.331.108.533-.185.464-.703.56-1.119.685-.19-.014-.405-.044-.394-.286zm20.626 2.914c.467.216.605-.236.896-.449.083-.271-.098-.5-.15-.751-.355-.263.007-.564-.111-.897-.03-.217-.272-.281-.417-.383-.064-.052-.027-.153.02-.215a.532.532 0 0 0-.155-.525c-.163-.108-.376-.186-.561-.16-.238-.053-.163-.383-.429-.428-.492-.214-.653.386-1.06.48-.417.075-.678-.412-1.111-.161a.204.204 0 0 0-.084.192c-.065.094.02.265.03.398.584.332.297.85.297 1.385.072.163.144.325.337.369.326.047.48-.298.724-.45.087 0 .139.106.203.166-.006.412-.576.697-.286 1.134.142.075.31.152.476.083.464-.407.932.11 1.381.212zm1.912 1.23c.248.088.264-.265.396-.4.078-.203-.022-.384-.106-.53-.234-.135-.41.093-.558.2-.163.06-.21-.173-.346-.179-.33.346-.363-.365-.716-.234-.128.205-.462.09-.499.365.224.156.371.42.582.583.454.261.303-.427.552-.45.07.098.218.15.164.297.095.202.318.384.531.348zm-19.513 2.513c.259.09.457-.138.635-.329.21-.003.425-.003.581.113.23.031.347-.185.509-.32.095-.338.44-.574.421-.953-.287-.652-.617.213-1.032-.037-.268.067-.458-.213-.744-.184a.406.406 0 0 0-.216.451c.244.349-.29.577-.263.93.128.096.066.2.109.329zm-6.924.737c.282-.116.365-.417.397-.687-.12-.188-.283-.096-.45-.084-.193.157-.074.482-.103.718.03.069.094.053.156.053zm31.17.412c.188-.093.225-.274.24-.452-.038-.18-.24-.267-.4-.197-.066.128-.188.223-.18.379.05.123.176.298.34.27zm-2.441 2.118c-.109-.282-.536-.473-.346-.852.052-.248.214-.459.319-.686.124-.03.138.093.239.1-.033.555-.083 1.055.188 1.55.059.19-.103.357-.052.48l-.084.052c.035.01.033.052.033.079-.2-.057.002.125-.162.137-.36-.164-.09-.601-.135-.86zm4.58 2.303c.154-.04.126-.209.133-.345-.034-.237-.205-.45-.48-.316-.096.066-.029.19-.05.285.05.178.176.376.398.376zm-37.58 2.202c.339-.217.245-.518.185-.852-.177-.359-.554-.199-.85-.239-.146.098-.305.209-.325.396.07.148.224.308.4.296.264.036.326.427.59.4zm.737.367c.068-.14 0-.29-.073-.396-.11-.022-.213-.196-.325-.053 0 .132.007.258.062.368.118.016.212.243.336.08zm.958.644c.25.082.531-.027.715-.108.25-.193.695.072.878-.266.132-.098.184-.229.163-.4-.198-.36.073-.919-.242-1.225-.214-.182-.481-.005-.687.053-.123 0-.31.142-.376-.024-.503-.092-.279-.772-.815-.857-.275-.168-.357-.463-.35-.768.259-.33.266-.795.214-1.225.097-.334.604-.628.267-1.012-.156-.089-.29-.06-.458-.024-.22.072-.36.591-.631.319-.1-.256.152-.432.291-.616.56-.287.979-.87 1.082-1.465 0-.088-.113-.19 0-.264.262.112.422-.156.645-.217.382-.146.623.305 1.029.116.54-.253.45-.854.798-1.234.183-.013.351.023.5.086.31.016.665-.068.856-.38.1-.37.05-.806-.162-1.116-.187-.285.02-.532-.03-.819-.163-.313-.132-.912-.664-.859-.325-.111-.485.172-.713.379-.037.204-.037.3 0 .48-.053.378-.26.815-.666.93-.3.381-.544.803-.817 1.198-.428.273-.929.572-1.008 1.12-.115.06-.246.11-.38.046-.462.3-.661.886-1.134 1.23-.207.268-.169.57-.131.904-.05.362-.45.428-.664.635-.187.26-.325.59-.195.91.07.383.557.719.27 1.118-.312.42-.737 0-1.115 0a.668.668 0 0 0-.53.318c-.147.246-.163.562 0 .797.193.118.465.23.695.115.483-.35 1.127-.262 1.67-.086.355.17.373.587.607.852.45.178.792.65.907 1.117l.181.242zm-7.295 2.205c.27-.238-.044-.546-.08-.82-.127-.153-.232.057-.37.025-.061.158-.111.35-.052.528.134.179.339.187.502.267zm3.155.666c.24.02.457-.021.64-.13.456-.408 1.172-.211 1.591-.723a.547.547 0 0 0 .133-.552c-.078-.268-.36-.37-.562-.51-.145-.113-.454-.075-.447-.347-.334-.388-.372-.934-.349-1.44.135-.078-.018-.17 0-.262a.525.525 0 0 0-.446-.317c-.164.058-.231.196-.4.264-.256.209-.462-.03-.743-.03-.118-.176-.354-.206-.582-.183-.03.088-.118.035-.184.053-.642.107-.518.875-.714 1.33-.496.248-.952.665-.992 1.25.09.385.144.778.51 1.038.283.286.794.25 1.144.138.515-.7 1.003.23 1.401.42zm43.816.17a.895.895 0 0 0 .134-.503c-.18-.283.084-.578.073-.879-.03-.327-.11-.683-.394-.85-.335-.056-.524.396-.72.632-.495.577.184 1.141.262 1.703.185.208.498.088.645-.104zm-2.827 1.721a.598.598 0 0 0 .078-.502c-.044-.077-.151-.19-.26-.112-.24.112-.35.312-.292.589.144.132.314.085.474.025zm-44.326.503c.131-.084.219-.184.315-.313.094-.171.067-.424-.08-.558-.197-.177-.373.066-.479.207-.095.143-.237.339-.105.507.057.135.239.188.349.157zm45.867.728c.37.147.698-.135.978-.35.317.082.716.004.905-.294.326-.422-.334-.397-.448-.69.2-.131.364-.167.53-.376a.891.891 0 0 0 .078-.448l-.268-.32c-.626-.118-.64.21-1.257.22-.555-.01-.667-.66-.82-1.067-.259-.972.31-2.134-.193-2.978-.285-.229-.596-.238-.924-.372-.733-.352.087-1.117-.294-1.596-.152-.065-.313-.009-.44.05-.271-.133-.04-.47-.219-.64-.078-.166-.252-.239-.427-.239-.179-.075-.192-.266-.29-.397.134-.55-.063-1.019-.505-1.365-.245-.353.22-.545.21-.871-.025-.157-.025-.347-.18-.431-.453 0-.376 0-.453.185-.147.246-.039.503-.24.716-.05.032-.124.093-.185.032-.214-.078-.186-.502-.186-.502.186-.24.213-.645.08-.91-.203-.177-.48-.108-.718-.056-.134-.143-.253-.298-.24-.498.295-.215.116-.62.05-.879-.145-.173-.296-.722-.54-.74-.48-.168-.454.097-.61-.289.054-.353-.44-.303-.446-.601-.237-.236-.12-.534-.115-.832-.122-.094-.079-.26-.153-.367.05-.27.386-.27.555-.327-.149.183-.141.427-.218.642.049.268-.005.614.298.717.528.34.502-.493.899-.392-.118.15-.13.349-.188.52.047.149.15.304.352.24.116-.08.335-.145.315-.34.171-.283-.232-.418.134-.614.137-.18.256-.29.37-.479.073-.17 0-.357-.106-.479-.435-.07-.663-.48-1.065-.64-.25.045-.277.33-.364.507-.112.034-.237.156-.347.111.165-.334-.317-.609 0-.912.075-.277-.11-.443-.237-.635-.262-.109-.557.074-.775.235-.272.275-.03.703-.082 1.015-.072.423-.55.152-.681.504.063.315-.253.47-.216.773-.088.095.066.322-.132.35-.015.403.179.746.48 1.004-.132.597.342.465-.32.666-.264 0-.612.133-.795-.215.038-.594-.242-.986-.367-1.516l-.948-.107c-.952-1.12-1.438-1.298-2.61-2-.42-.239-.37-.725-.556-1.088-.098-.51-.483-.348-1.064-.605-.175-.038-.298.043-.423.132-.259.187-.388.729-.773.587-.67-.703.502-.955.744-1.464.03-.226.095-.526-.16-.668-.391-.259-.668.216-1.088.134a.842.842 0 0 1-.241-.352c-.06-.193-.03-.433.16-.528.079-.335.342-.814-.031-1.098.023-.183-.287-.15-.233-.364-.459-.795.804-.832.826-1.492.007-.21-.127-.375-.295-.48-.168-.1-.304.07-.48.055-.248.5-.614-.074-.98.13-.595.085-.755.942-1.407.818-.19-.034-.238-.323-.42-.314-.47-.485-.958.257-1.487.03-.12-.288-.267-.54-.53-.72-.246.106-.605.18-.666.503-.117.3-.388.216-.636.216-.258.083-.498.267-.587.537-.28.254.022.67-.263.931-.045-.01-.104.012-.13-.033-.648-.48.208-1.088.026-1.65-.08-.134-.224-.251-.398-.21-.155.02-.287.187-.345.315-.041.136-.156.332 0 .457.008.126.129.299-.023.401.05.104-.082.202-.161.287-.097.033-.164-.035-.24-.08-.203-.138-.11-.402-.131-.608.274-.565.399-1.29 0-1.84v-.667c-.015-.59.604-.56.818-1.063.057-.228.15-.517-.102-.688-.21-.268-.654-.2-.959-.132-.34 0-.808.458-1.197.05-.609-.559.008-1.441-.527-1.996-.074-.221-.212-.478.03-.667.464-.234.947-.564 1.245-1.04.056-.341.564-.438.53-.824-.023-.392-.162-.733-.316-1.062-.06-.265-.037-.585.183-.748.177.03.39-.095.533.105.299.184.366-.2.557-.267.01-.351.275-.603.45-.875.366-.087.447.388.715.533-.023.267.175.454.104.74-.026.023-.04.067-.076.061a.7.7 0 0 1 .023.316c.146.304.489.496.828.503.2 0 .397-.073.5-.237.082-.508.596-.858.478-1.413-.332-.426-.381-1.028-.162-1.514-.113-.188-.135-.444-.34-.562-.215-.093-.522-.153-.72-.054-.612-.051-1.004.54-1.297.983-.177.12-.25-.168-.398-.214-.267-.066-.501.099-.714.245l-.186-.186c-.128-.229-.009-.488.075-.695.354.097-.096.233-.022.399.042.134.185.16.286.187.111-.111.125-.253.161-.372-.015-.15.024-.386-.183-.48.036-.296.154-.687 0-.931-.832-.335.246-.918-.131-1.496-.149-.221-.447-.3-.642-.501-.014-.214.234-.31.264-.505.14-.27-.278-.583.06-.772l.02.027c.243-.11.268.283.533.186.05-.03.153-.044.134-.132.25-.106.263-.388.314-.618.091-.205.325-.227.481-.42.16 0 .362-.105.479-.214a.807.807 0 0 0 .081-.431c-.105-.148-.245-.295-.452-.234-.264-.044-.16.305-.397.317-.144-.088-.11-.237-.266-.264-.289-.121-.366-.423-.396-.7-.102-.234.051-.432.184-.603.117-.259.212-.45.083-.728.07-.065-.062-.109-.062-.186-.375-.358-.485-.936-.316-1.432-.05-.154-.169-.228-.318-.264-.315.155-.337.485-.502.747-.087.575-.743.168-.927.604-.11.229.067.41.153.59.423.595-.374.657-.58 1.038-.337.428-.242 1.015-.184 1.546-.08.135-.16.31-.375.235-.413-.51.09-1.039.188-1.547.256-.317.047-.716.134-1.064-.078-.493.671-.713.532-1.274-.48-.498.316-.803.237-1.305a.42.42 0 0 0-.295-.268c-.833.814-.909 1.998-1.327 3.01-.38.616-.827 1.3-.53 2.103-.421.462-.532 1.085-.32 1.677-.059.325-.39.443-.581.667-.582.51-.234 1.403-.878 1.894-.336.34-.876-.052-1.215.265-.267.466-.658.926-.531 1.513-.31.365-.462.784-.69 1.172-.31.119-.555.393-.825.59-.099.55-.725.47-1.006.802-.222.334.149.62.32.873-.06.127-.196.183-.296.261-.685.054-1.394-.346-1.96.136-.34.384-.436 1.05-.98 1.147-.03-.028-.083-.058-.083-.105-.041-.042-.132-.042-.16.025-.074-.053-.098-.128-.157-.19-.035.011-.087-.017-.11.035l-.052-.052c.12-.099.177-.216.265-.328a.515.515 0 0 0-.027-.399c-.102-.259-.397-.154-.602-.234-.486.031-.472.658-.88.745-.283-.293-.508-.657-.96-.584-.274.111-.618.256-.716.584.017.453-.282.79-.58 1.091-.295.042-.513.257-.773.395-.09.127-.213.009-.29-.073 0-.26.34-.307.454-.514.123-.128.005-.294-.108-.396-.368-.222-.673.164-.987.32-.147.177-.285-.01-.418-.103-.385-.512-.935.055-1.41.078-.314-.4-.67-.783-1.113-.983-.292-.075-.582 0-.822.134-.612.306-.311-.496-.685-.614-.193 0-.414-.117-.562 0-.095.111-.182.238-.182.397.131.344.24.748.15 1.121.33.376.652.802 1.121.93.805-.178 1.16.552 1.617 1.035.655-.072 1.09.587 1.772.265.532-.265 1.272-.17 1.786-.073.258.104.37.406.5.633.159.105.343.143.53.169.288-.075.621-.152.747-.402.012-.267.176-.6.447-.725.076.061.119.133.136.216-.186.308-.561.576-.447.981.068.084.05.266.21.245.282.287.54.593.583.982.118.297.426.349.664.482.558.195 1.295.235 1.772-.185.21-.06.446-.135.62.052.151.496.654.812 1.055 1.117.164.25.095.6.265.85.821.68-.204 1.748.77 2.35.388.512-.156 1.42.582 1.695.222.01.432-.237.611-.07.057.574-.71.66-1.116.87-.723.347-.897 1.147-.872 1.864.121.515.724.434 1.108.592.269.147.504.446.857.287.289-.188.419-.57.469-.879.086-.143.26-.288.458-.265.639.395-.218.873.024 1.36.132.228.36.345.64.296.964.609-.119 1.497-.213 2.23-.035.195-.071.46.133.587.514.144.76-.37 1.06-.666.382-.154.622.29 1.01.136.395-.21.385-.684.531-1.036.139-.5.705-.327 1.001-.617.413-.464.844-1.05 1.519-1.035.36.206.736.545 1.215.45.617-.027.968-.785 1.673-.507.37-.085.59-.559.878-.77.509.169.824-.467 1.114-.75.101-.063.258.025.342-.077.233-.157.341.158.503.243.201.236.515.066.775.08.073-.11.182-.259.314-.298.135.077.294.061.402.218.253.691 1.014.448 1.642.5.362.23.274.644.476.932.025 0 .067.006.083-.02l.182.154c.643-.097.487.673.957.88.451.127.66-.337 1.119-.211.537.396-.436.426-.325.879.072.145.057.337.213.45.383.191.564-.707.905-.217.076.436.547.675.87.88.854.252.397 1.162.56 1.765.237.53.676-.016 1.091.15.67.26.138 1.052.45 1.526.338.46.953.218 1.432.318.115.039.13.167.156.266.165.202.351.328.613.35.604 0 .417-.678.8-.962.05.102.17.08.232.161.036.21-.228.286-.315.477-.046.226-.258.515-.03.721.354.2.505-.252.796-.246.351.296-.014.838.216 1.2.135.418.59.31.844.563.584.227.285.916.662 1.28.17.191.475.08.668.021.114.072 0 .175 0 .265-.1.325.042.622.243.85.128.105.329.055.45-.048.2-.248-.185-.573.13-.752.08.033.204.054.214.136.124.08-.018.215.02.295-.212.823.924.795.881 1.571.257.356-.243.59-.184.958.286.427.793.764 1.107 1.171a.518.518 0 0 1 .218.429c.136.466.676.31.949.613.118.1.118.295.112.42a.996.996 0 0 1-.375.33.558.558 0 0 0-.076.284c.055.485.605.204.901.324.11.02.218.14.21.263.093.146.186.308.373.325zm-50.327 5.744c-.042-.215-.229-.37-.427-.449.125.169.662-.254.791.161-.004.2-.05.417-.232.533-.124-.05.096-.408-.132-.245zm1.028.964c.711-.377.3-1.208.565-1.815.057-.237.298-.228.479-.293.448-.208.344-.694.316-1.116.065-.225.159-.508.424-.588.326-.168.326-.58.604-.716.091-.145.35-.258.563-.297.311-.288.758-.56.692-1.035-.014-.63-.596-.906-.706-1.464l-.017-.024-.022-.025c-.124-.268-.22-.591-.028-.86.132-.25.246-.515.242-.821-.123-.213-.407-.25-.608-.242-.328.151-.262.503-.27.794l-.394.538c-.06.371.04.735.234 1.038a.377.377 0 0 1-.155.455c-.072-.01-.162.02-.213-.033-.256-.176.041-.391-.051-.63-.096-.174-.325-.234-.51-.162-.146.224-.426.187-.58.341-.446.588.168 1.13.343 1.652-.1.346-.372.587-.694.746-.677.394-.276 1.362-1.03 1.679-.324-.103-.72-.065-.981.166-.205.174-.233.431-.212.71.068.268.26.436.477.618-.152.192-.47.132-.587.42-.293.474-.031 1.069.189 1.466.695 1.022 1.255-.374 1.93-.502zm-2.65 1.944c-.148-.358-.29-.848.028-1.173.156-.012.305-.098.452-.023.317.16-.046.668.373.74.49.206 1.29.243 1.267.991-.029.256-.316.362-.53.422-.64-.037-1.312-.356-1.59-.957z"/>
        <g fill="#B7B7AD">
            <path d="M57.04 32.372s.952-1.389 1.762-1.08c0 0 1.098.505.511 1.778 0 0 .04.504-2.382.348l-.35.003c.114-.33.261-.678.458-1.049zm2.898 2.093s1.027-.045 1.062-1.242c0 0 0-2.705-2.383-2.705 0 0-2.346-.113-3.889 2.922-1.352.007-2.86 0-3.079-.059 0 0-.145-1.433-1.175-1.282 0 0-1.667.545-.474 2.128 0 0 .147.193.474.313 0 0 .993 1.816-.586 2.702 0 0-1.613 1.081-1.576-2.741 0 0 .072-10.087-.218-12.41 0 0-.114-1.275-1.431-2.007 0 0-.551-.351-.588.385l-.073 15.771s-.085 1.288.917 1.93c0 0 2.544 2.267 4.768-.692 0 0 .79-1.338.18-2.977l2.495-.016a6.284 6.284 0 0 0-.146.825s-.403 3.672 3.043 3.556c0 0 2.275 0 3.338-2.626 0 0 .22-1.005-.66-.159 0 0-1.32 2.209-2.97 1.01 0 0-.872-.88-.64-2.616l3.61-.01zM73.38 34.19s-.664 0-1.07.223a.71.71 0 0 0-.29.301l.005-2.019c.708-.649 1.405-1.102 1.982-1.102 0 0 1.294-.075 1.333 1.28 0 0 0 1.54-1.96 1.316m-1.458-14.183c-.437-.033-1.834.013-1.866 1.816l.049 10.516c-.356 1.04-1.692 3.862-3.668 4.517 0 0-2.512.83-2.104-2.29 0 0 .072-1.73 1.475-3.231 0 0 1.108-.998 1.146.52v.495s-.592.223-.333.824c0 0 .48 1.26 1.145.777 0 0 .221-.215.256-.492.152-.666.314-2.008-.553-2.802 0 0-2.16-1.77-4.654 1.54 0 0-2.399 4.172 1.034 5.677 0 0 3.464 1.344 6.267-3.098l.014 3.02s-.147.261.592.19c0 0 1.146.037 1.292-.715l.003-2.153c.089.163.303.32.699.425 0 0 1.044.386 2.241-.177.937.594.787 2.052.787 2.052.11.979 0 13.233.038 14.997.035 1.765 1.623 2.481 1.623 2.481.63.374.595-.371.595-.371l-.223-15.864c-.025-2.587-1.289-3.464-2.087-3.757.19-.156.47-.356.658-.578 0 0 2.46-2.541-.79-4.196 0 0-1.632-.684-3.532 1.08l.023-11.039c.01-.171-.127-.164-.127-.164M40.046 36.4c-2.532 2.207-3.241-.104-3.241-.104-.353-3.23 3.14-3.588 3.14-3.588.612-.077 1.13.187 1.5.476l.01 1.283c-.805 1.603-1.409 1.934-1.409 1.934m3.24.77c-.127-.916 0-14.317 0-14.317s0-1.13-.811-1.792c0 0-.708-.77-1.061-.053 0 0 0 5.963.026 11.058l-.026-.028s-2.987-2.107-5.773 1.027c0 0-1.468 1.75-1.083 3.602-.315.36-.969 1.003-1.196.346 0 0-.302-1.826-1.368-1.896 0 0-.491-.236-1.468 1.077 0 0-.453.563-.503-.409 0 0 .05-2.003-1.472-1.845 0 0-.806-.108-2.48 2.46 0 0-.91.975-1.062-.259 0 0 .05-3.895-1.67-2.359 0 0-1.417 1.591-2.482 2.822 0 0-.706.617-.808-.514 0 0 0-4.511-1.316-4.511 0 0-1.216-.411-2.228 4.102 0 0-.192 2.72-2.177 2.307 0 0-3.567-.634-7.254-.834.14-.24.264-.511.37-.806 0 0 1.062-2.461 1.011-5.903 0 0-.101-17.44-.708-19.236 0 0-.302-1.076-1.063-.668 0 0-1.267-.104-1.064 7.748 0 0 .15 12.156.305 14.883 0 0 .29 2.63-.446 3.929-1.78-.022-3.401-.046-4.669.478 0 0-1.79 1.001-.05 1.744 0 0 2.902.722 4.993-.715 1.264.36 3.878.666 9.082.973 1.86.108 2.227-1.593 2.227-1.593.828-2.128 1.012-.409 1.012-.409-.05 2.11.71 2.26.71 2.26.86.666 2.936-1.95 2.936-1.95 1.214-1.904 1.214-.826 1.214-.826-.1 1.905 1.014 2.313 1.014 2.313 1.364.512 2.833-2.001 2.833-2.001 1.111-1.951 1.267-1.08 1.267-1.08-.052 1.233.05 2.466.05 2.466.403 1.903 2.532-.615 2.532-.615.606-.976.707-.567.707-.567.354 1.489 1.367 1.489 1.367 1.489.88.036 1.732-1.028 2.138-1.619.112.216.26.435.446.642 0 0 1.822 2.21 4.301.67 0 0 .934-.7 1.89-2.094.01.735.023 1.353.033 1.788 0 0 .26 1.407 1.475.405 0 0 .307-.113.381-.861 0 0 0-.232-.083-.829M26.68 44.172s10.576-.387 30.37 0c0 0 1.35 0 1.95.72 0 0-7.233.259-30.625 1.108 0 0-4.639-.083-3.04-1.406 0 0 .447-.339 1.344-.422"/>
        </g>
    </g>
</svg>
