<svg width="26" height="20" viewBox="0 0 26 20" fill="none" xmlns="http://www.w3.org/2000/svg">
<path d="M20.1074 12.024C20.3956 12.024 20.6722 11.9786 20.9475 11.9372C20.8583 12.2472 20.7666 12.5625 20.6192 12.8457C20.4719 13.2572 20.2418 13.6139 20.0131 13.9733C19.8218 14.3621 19.4845 14.6253 19.2363 14.9579C18.9765 15.2812 18.6224 15.4963 18.3419 15.7649C18.0667 16.0454 17.7061 16.1857 17.4191 16.3834C17.1193 16.5611 16.8582 16.7575 16.579 16.851L15.8824 17.1476L15.2698 17.4108L15.8966 20L16.6682 19.8076C16.9151 19.7435 17.2162 19.6687 17.5587 19.5792C17.909 19.5124 18.2825 19.3293 18.6987 19.1623C19.1097 18.9726 19.5853 18.8444 20.0273 18.5397C20.4719 18.2485 20.985 18.0053 21.4374 17.6152C21.8755 17.2131 22.4041 16.8644 22.7944 16.3527C23.2209 15.8744 23.6423 15.3721 23.9693 14.8003C24.348 14.2552 24.6052 13.6566 24.8766 13.0648C25.1221 12.4729 25.3199 11.8677 25.4814 11.2799C25.7877 10.1015 25.9247 8.98196 25.9777 8.02405C26.0217 7.0648 25.9958 6.2672 25.9415 5.69005C25.9222 5.4175 25.886 5.15297 25.8601 4.96994L25.8278 4.74549L25.7942 4.75351C25.5643 3.64351 25.0351 2.62348 24.2679 1.81138C23.5006 0.999294 22.5266 0.428337 21.4585 0.164564C20.3904 -0.0992069 19.2719 -0.0450172 18.2324 0.320866C17.1929 0.686749 16.2748 1.34937 15.5844 2.23209C14.8939 3.11481 14.4594 4.18154 14.3309 5.30889C14.2025 6.43624 14.3855 7.57815 14.8586 8.60251C15.3318 9.62687 16.0758 10.4918 17.0047 11.0973C17.9336 11.7028 19.0093 12.0241 20.1074 12.024ZM5.89049 12.024C6.17871 12.024 6.45529 11.9786 6.73058 11.9372C6.6414 12.2472 6.54964 12.5625 6.4023 12.8457C6.25496 13.2572 6.0249 13.6139 5.79614 13.9733C5.60486 14.3621 5.26753 14.6253 5.01938 14.9579C4.7596 15.2812 4.40547 15.4963 4.125 15.7649C3.84971 16.0454 3.48912 16.1857 3.20219 16.3834C2.90235 16.5611 2.64127 16.7575 2.3621 16.851L1.66547 17.1476L1.05285 17.4108L1.67969 20L2.45128 19.8076C2.69814 19.7435 2.99928 19.6687 3.34178 19.5792C3.69203 19.5124 4.06555 19.3293 4.48172 19.1623C4.89143 18.9713 5.36834 18.8444 5.81036 18.5384C6.25496 18.2472 6.76806 18.004 7.22042 17.6139C7.65856 17.2118 8.18717 16.8631 8.57749 16.3527C9.004 15.8744 9.42534 15.3721 9.75233 14.8003C10.131 14.2552 10.3882 13.6566 10.6596 13.0648C10.9052 12.4729 11.1029 11.8677 11.2645 11.2799C11.5708 10.1015 11.7078 8.98196 11.7608 8.02405C11.8047 7.0648 11.7789 6.2672 11.7246 5.69005C11.7052 5.4175 11.669 5.15297 11.6432 4.96994L11.6109 4.74549L11.5773 4.75351C11.3474 3.64351 10.8182 2.62348 10.0509 1.81138C9.28366 0.999294 8.30964 0.428337 7.24156 0.164564C6.17349 -0.0992069 5.05499 -0.0450172 4.01546 0.320866C2.97593 0.686749 2.05786 1.34937 1.36742 2.23209C0.676994 3.11481 0.242426 4.18154 0.113993 5.30889C-0.0144386 6.43624 0.168512 7.57815 0.641682 8.60251C1.11485 9.62687 1.8589 10.4918 2.78777 11.0973C3.71663 11.7028 4.79235 12.0241 5.89049 12.024Z" fill="#FFC4C4"/>
</svg>
