<svg width="62" height="83" viewBox="0 0 62 83" fill="none" xmlns="http://www.w3.org/2000/svg">
<path d="M14.99 66.1492C14.9168 62.7158 14.4123 59.305 13.4883 55.9966C12.1454 52.8711 10.4366 49.9148 8.39767 47.1892C7.35123 45.7458 6.39902 44.2367 5.54692 42.6713C3.82708 38.9935 2.95725 34.9775 3.00162 30.9197C3.00162 23.5149 5.95144 16.4134 11.2022 11.1775C16.4529 5.94153 23.5744 3 31 3C38.4168 2.99999 45.5306 5.93455 50.7799 11.1595C56.0291 16.3845 58.9849 23.473 58.9984 30.8689C59.0427 34.9267 58.1729 38.9427 56.4531 42.6206C55.6051 44.2209 54.6528 45.764 53.6023 47.24C51.5634 49.9655 49.8546 52.9218 48.5117 56.0474C47.5877 59.3557 47.0832 62.7665 47.01 66.2" stroke="url(#paint0_linear_132_2874)" stroke-width="5" stroke-linecap="round"/>
<path d="M41 79H21C20.4696 79 19.9609 79.2107 19.5858 79.5858C19.2107 79.9609 19 80.4696 19 81C19 81.5304 19.2107 82.0391 19.5858 82.4142C19.9609 82.7893 20.4696 83 21 83H41C41.5304 83 42.0391 82.7893 42.4142 82.4142C42.7893 82.0391 43 81.5304 43 81C43 80.4696 42.7893 79.9609 42.4142 79.5858C42.0391 79.2107 41.5304 79 41 79Z" fill="#41748D"/>
<path d="M35.4481 47.7962C46.0757 47.7962 46.9319 38.7547 47.0003 34.458C47.0009 34.3411 46.9781 34.2253 46.9332 34.1174C46.8883 34.0095 46.8221 33.9117 46.7387 33.8298C46.6554 33.7479 46.5564 33.6835 46.4477 33.6406C46.339 33.5976 46.2228 33.5768 46.1059 33.5796C31.0029 33.857 31.0029 41.1791 31.0029 47.7962V71.3524" stroke="#EB5C5F" stroke-width="3" stroke-linecap="round" stroke-linejoin="round"/>
<path d="M31.0029 47.796C31.0029 47.796 31.0029 42.4618 38.1152 41.5728" stroke="#EB5C5F" stroke-width="3" stroke-linecap="round" stroke-linejoin="round"/>
<path d="M25.6919 38.0169C15.1199 38.0169 15.0682 28.9754 15.0001 24.6787C14.9995 24.5618 15.0222 24.446 15.0669 24.3381C15.1115 24.2302 15.1773 24.1324 15.2603 24.0505C15.3432 23.9686 15.4417 23.9042 15.5498 23.8613C15.6579 23.8183 15.7735 23.7976 15.8898 23.8003C30.9139 24.0777 30.9139 31.3998 30.9139 38.0169V46.9073" stroke="#EB5C5F" stroke-width="3" stroke-linecap="round" stroke-linejoin="round"/>
<path d="M45.7865 71H16.2135C15.6795 71 15.1673 71.2107 14.7897 71.5858C14.4121 71.9609 14.2 72.4696 14.2 73C14.2 73.5304 14.4121 74.0391 14.7897 74.4142C15.1673 74.7893 15.6795 75 16.2135 75H45.7865C46.3205 75 46.8327 74.7893 47.2103 74.4142C47.5879 74.0391 47.8 73.5304 47.8 73C47.8 72.4696 47.5879 71.9609 47.2103 71.5858C46.8327 71.2107 46.3205 71 45.7865 71Z" fill="#41748D"/>
<path d="M31.0003 54.6001C31.0003 54.6001 31.8 34.6001 23.8391 31.7935" stroke="#EB5C5F" stroke-width="3" stroke-linecap="round" stroke-linejoin="round"/>
<defs>
<linearGradient id="paint0_linear_132_2874" x1="31" y1="3" x2="31" y2="66.2" gradientUnits="userSpaceOnUse">
<stop stop-color="#7EBCC6"/>
<stop offset="1" stop-color="#41748D"/>
</linearGradient>
</defs>
</svg>
